# xmcd CD database file
#
# Track frame offsets:
#	150
#	21383
#	65326
#	103263
#	138177
#	166668
#	204647
#	234754
#	266756
#	304944
#
# Disc length: 4696 seconds
#
# Revision: 0
# Processed by: cddbd v1.5.1PL0 Copyright (c) Steve Scherf et al.
# Submitted via: CDex 1.51
#
DISCID=8512560a
DTITLE=Glen Simpson  - Live Featuring Joe Henderson
DYEAR=1990
DGENRE=Jazz
TTITLE0=Bessie's Blues
TTITLE1=Bemsha Swing
TTITLE2=You Don't Know What Love Is
TTITLE3=All Blues
TTITLE4=Oleo
TTITLE5=In a Sentimental Mood
TTITLE6=Mr. PC
TTITLE7=Mr. Little Red Shoes
TTITLE8=Time is Now
TTITLE9=Nardis
EXTD=YEAR: 1990
EXTT0=
EXTT1=
EXTT2=
EXTT3=
EXTT4=
EXTT5=
EXTT6=
EXTT7=
EXTT8=
EXTT9=
PLAYORDER=
